<svg width="582" height="582" viewBox="0 0 582 582" fill="none" xmlns="http://www.w3.org/2000/svg">
<g clip-path="url(#clip0_162_25)">
<rect width="582" height="582" rx="291" fill="black"/>
<g filter="url(#filter0_d_162_25)">
<path fill-rule="evenodd" clip-rule="evenodd" d="M315.164 365.37C307.468 352.023 288.206 352.023 280.511 365.37L210.142 487.417C202.454 500.75 212.077 517.407 227.468 517.407H368.207C383.598 517.407 393.221 500.75 385.533 487.417L315.164 365.37ZM302.824 396.475C297.771 388.08 285.601 388.081 280.548 396.475L226.036 487.04C220.821 495.704 227.061 506.744 237.174 506.744H346.198C356.311 506.744 362.551 495.704 357.336 487.04L302.824 396.475Z" fill="#20EF6C"/>
</g>
<mask id="mask0_162_25" style="mask-type:alpha" maskUnits="userSpaceOnUse" x="-98" y="-117" width="856" height="830">
<path fill-rule="evenodd" clip-rule="evenodd" d="M757.975 -116.617H-97.5063V712.617H757.975V-116.617ZM315.162 365.37C307.467 352.023 288.205 352.023 280.509 365.37L210.14 487.417C202.452 500.75 212.076 517.407 227.466 517.407H368.205C383.596 517.407 393.219 500.75 385.531 487.417L315.162 365.37Z" fill="#D9D9D9"/>
</mask>
<g mask="url(#mask0_162_25)">
<g filter="url(#filter1_d_162_25)">
<path d="M290.383 300.87L287.993 284.056L272.819 268.062H257.645M290.383 300.87L312.157 280.403M290.383 300.87L292.306 314.404M378.627 248.377H346.228L324.493 268.808M378.627 291.028L359.762 310.303L308.088 324.657V355.004M287.993 373.049L272.819 314.404H240.421L220.326 305.382M257.645 334.909V368.948L282.662 384.942M264.207 216.389V240.175L249.033 248.377L257.645 268.062M225.247 268.062H257.645M282.662 195.883V248.377L290.383 256.76M312.157 280.403L290.383 256.76M312.157 280.403L324.493 268.808M290.383 256.76L320.802 206.136M324.493 268.808V237.714M203.101 284.056H249.033L292.306 314.404M292.306 314.404L299.066 361.976M308.088 373.049V355.004M308.088 355.004L324.493 349.263L339.667 334.909M293.735 321.376L324.562 288.876L356.674 285.882L361.812 271.343" stroke="#20EF6C" stroke-width="7"/>
<path d="M163.577 323.649L163.597 323.702L163.619 323.755L165.958 329.401L165.98 329.453L166.003 329.506C172.873 345.074 182.513 359.14 194.294 371.082L194.306 371.094L194.318 371.106L195.612 372.4L195.623 372.412L195.636 372.424C207.56 384.187 221.601 393.815 237.14 400.684L237.194 400.707L237.248 400.73L243.033 403.126L243.087 403.148L243.142 403.17C258.716 409.196 275.641 412.498 293.325 412.498C311.024 412.498 327.962 409.19 343.547 403.154L343.601 403.133L343.655 403.111L349.363 400.746L349.417 400.724L349.47 400.701C364.998 393.843 379.031 384.23 390.952 372.484L390.965 372.471L390.978 372.458L392.39 371.047L392.403 371.034L392.416 371.021C404.148 359.113 413.753 345.098 420.609 329.591L420.633 329.537L420.655 329.482L423.062 323.672L423.085 323.618L423.106 323.562C429.129 307.992 432.429 291.072 432.429 273.393C432.429 255.684 429.117 238.736 423.074 223.143L423.054 223.089L423.032 223.036L420.689 217.381L420.667 217.328L420.644 217.276C406.636 185.539 381.116 160.033 349.371 146.042L349.319 146.02L349.268 145.998L343.752 143.713L343.7 143.692L343.648 143.672C328.035 137.611 311.062 134.289 293.325 134.289C275.602 134.289 258.643 137.605 243.041 143.656L242.988 143.677L242.936 143.699L237.344 146.015L237.291 146.037L237.239 146.059C205.483 160.067 179.961 185.599 165.967 217.362L165.944 217.413L165.923 217.465L163.65 222.951L163.629 223.003L163.609 223.055C157.544 238.672 154.22 255.65 154.22 273.393C154.22 291.105 157.533 308.055 163.577 323.649ZM153.179 359.74L151.45 356.926L148.183 357.412L114.133 362.479L103.624 337.108L131.376 316.545L134.016 314.589L133.268 311.389C132.359 307.504 131.588 303.566 130.96 299.58L130.445 296.31L127.234 295.507L93.6816 287.119L93.6816 259.658L127.371 251.236L130.564 250.437L131.093 247.188C131.733 243.255 132.513 239.368 133.427 235.534L134.192 232.323L131.54 230.357L103.624 209.673L114.133 184.302L148.645 189.438L151.893 189.921L153.627 187.132C155.697 183.804 157.882 180.554 160.178 177.389L162.118 174.714L160.418 171.881L142.447 141.928L161.865 122.51L191.904 140.533L194.726 142.227L197.397 140.304C200.543 138.04 203.771 135.884 207.077 133.842L209.88 132.111L209.395 128.852L204.239 94.2011L229.61 83.6921L250.489 111.871L252.446 114.513L255.648 113.762C259.394 112.884 263.19 112.133 267.03 111.516L270.287 110.992L271.088 107.792L279.598 73.7505L307.059 73.7505L315.57 107.793L316.37 110.994L319.627 111.517C323.466 112.135 327.261 112.885 331.006 113.763L334.207 114.514L336.165 111.872L357.044 83.693L382.415 94.202L377.258 128.855L376.773 132.113L379.576 133.845C382.883 135.887 386.112 138.043 389.258 140.308L391.929 142.231L394.752 140.538L424.789 122.516L444.207 141.934L426.235 171.887L424.535 174.72L426.475 177.395C428.77 180.559 430.955 183.809 433.025 187.137L434.759 189.926L438.007 189.443L472.516 184.308L483.025 209.679L455.11 230.362L452.458 232.327L453.223 235.539C454.137 239.371 454.916 243.256 455.556 247.188L456.085 250.437L459.279 251.236L492.967 259.658V287.119L459.415 295.507L456.204 296.31L455.689 299.58C455.061 303.565 454.291 307.501 453.382 311.385L452.634 314.585L455.274 316.541L483.025 337.103L472.516 362.473L438.469 357.407L435.202 356.921L433.473 359.735C431.349 363.192 429.1 366.565 426.732 369.847L424.805 372.519L426.5 375.344L444.202 404.848L424.784 424.266L395.366 406.615L392.53 404.913L389.854 406.858C386.553 409.257 383.159 411.536 379.679 413.689L376.88 415.421L377.364 418.677L382.41 452.584L357.039 463.093L336.672 435.606L334.708 432.955L331.498 433.718C327.527 434.662 323.5 435.463 319.422 436.113L316.16 436.633L315.359 439.838L307.059 473.036L279.598 473.036L271.299 439.839L270.497 436.634L267.235 436.114C263.156 435.464 259.127 434.664 255.155 433.719L251.945 432.956L249.981 435.607L229.615 463.094L204.244 452.585L209.289 418.68L209.773 415.423L206.974 413.692C203.494 411.539 200.101 409.261 196.801 406.862L194.125 404.918L191.289 406.619L161.869 424.271L142.451 404.853L160.153 375.35L161.848 372.525L159.921 369.852C157.553 366.57 155.304 363.197 153.179 359.74Z" stroke="#20EF6C" stroke-width="10"/>
<circle cx="322.032" cy="202.035" r="6.15159" fill="#20EF6C"/>
<circle cx="361.402" cy="267.652" r="6.15159" fill="#20EF6C"/>
<circle cx="341.717" cy="332.449" r="6.15159" fill="#20EF6C"/>
<circle cx="221.146" cy="267.652" r="6.15159" fill="#20EF6C"/>
<circle cx="324.493" cy="234.843" r="6.15159" fill="#20EF6C"/>
<circle cx="257.235" cy="332.449" r="6.15159" fill="#20EF6C"/>
<circle cx="215.405" cy="302.921" r="4.65159" stroke="#20EF6C" stroke-width="3"/>
<circle cx="263.797" cy="211.057" r="4.65159" stroke="#20EF6C" stroke-width="3"/>
<circle cx="382.728" cy="247.967" r="4.65159" stroke="#20EF6C" stroke-width="3"/>
<circle cx="198.18" cy="284.056" r="4.65159" stroke="#20EF6C" stroke-width="3"/>
<circle cx="282.662" cy="192.193" r="4.65159" stroke="#20EF6C" stroke-width="3"/>
<circle cx="382.728" cy="287.337" r="4.65159" stroke="#20EF6C" stroke-width="3"/>
</g>
</g>
</g>
<defs>
<filter id="filter0_d_162_25" x="203.438" y="355.36" width="188.798" height="170.047" filterUnits="userSpaceOnUse" color-interpolation-filters="sRGB">
<feFlood flood-opacity="0" result="BackgroundImageFix"/>
<feColorMatrix in="SourceAlpha" type="matrix" values="0 0 0 0 0 0 0 0 0 0 0 0 0 0 0 0 0 0 127 0" result="hardAlpha"/>
<feOffset dy="4"/>
<feGaussianBlur stdDeviation="2"/>
<feComposite in2="hardAlpha" operator="out"/>
<feColorMatrix type="matrix" values="0 0 0 0 0 0 0 0 0 0 0 0 0 0 0 0 0 0 0.25 0"/>
<feBlend mode="normal" in2="BackgroundImageFix" result="effect1_dropShadow_162_25"/>
<feBlend mode="normal" in="SourceGraphic" in2="effect1_dropShadow_162_25" result="shape"/>
</filter>
<filter id="filter1_d_162_25" x="84.6816" y="68.7505" width="417.286" height="417.286" filterUnits="userSpaceOnUse" color-interpolation-filters="sRGB">
<feFlood flood-opacity="0" result="BackgroundImageFix"/>
<feColorMatrix in="SourceAlpha" type="matrix" values="0 0 0 0 0 0 0 0 0 0 0 0 0 0 0 0 0 0 127 0" result="hardAlpha"/>
<feOffset dy="4"/>
<feGaussianBlur stdDeviation="2"/>
<feComposite in2="hardAlpha" operator="out"/>
<feColorMatrix type="matrix" values="0 0 0 0 0 0 0 0 0 0 0 0 0 0 0 0 0 0 0.25 0"/>
<feBlend mode="normal" in2="BackgroundImageFix" result="effect1_dropShadow_162_25"/>
<feBlend mode="normal" in="SourceGraphic" in2="effect1_dropShadow_162_25" result="shape"/>
</filter>
<clipPath id="clip0_162_25">
<rect width="582" height="582" rx="291" fill="white"/>
</clipPath>
</defs>
</svg>
